<svg width="20" height="20" viewBox="0 0 20 20" fill="none" xmlns="http://www.w3.org/2000/svg">
    <path fill-rule="evenodd" clip-rule="evenodd"
        d="M15.7311 5.55242C15.45 5.55864 15.1791 5.6595 14.9624 5.83867L7.32864 11.9687L4.74989 8.5288C4.65131 8.39747 4.52784 8.28678 4.38651 8.20317C4.24519 8.11957 4.08878 8.06459 3.92622 8.04143C3.76366 8.01827 3.59813 8.02747 3.43908 8.06829C3.28004 8.1091 3.13058 8.18074 2.99926 8.27931C2.86794 8.37789 2.75732 8.50145 2.67372 8.64278C2.59011 8.7841 2.53516 8.94042 2.51201 9.10298C2.48885 9.26554 2.49794 9.43115 2.53876 9.5902C2.57957 9.74925 2.65131 9.89863 2.74989 10.03L6.10239 14.5C6.20294 14.6341 6.32944 14.7466 6.47435 14.8308C6.61927 14.9151 6.77965 14.9693 6.94595 14.9903C7.11225 15.0113 7.28107 14.9986 7.44237 14.9531C7.60367 14.9075 7.75416 14.8298 7.88489 14.7249L16.5274 7.78752C16.7344 7.62593 16.8852 7.40324 16.9585 7.15108C17.0318 6.89892 17.0238 6.63001 16.9357 6.38265C16.8475 6.13528 16.6838 5.92193 16.4675 5.77291C16.2513 5.62388 15.9937 5.54674 15.7311 5.55242Z"
        fill="white" />
</svg>
